<svg width="32" height="32" viewBox="0 0 32 32" fill="none" xmlns="http://www.w3.org/2000/svg">
<path d="M25.472 7.93987C25.6085 7.8006 25.7714 7.68996 25.9511 7.61443C26.1309 7.5389 26.324 7.5 26.519 7.5C26.714 7.5 26.907 7.5389 27.0868 7.61443C27.2666 7.68996 27.4295 7.8006 27.566 7.93987C28.138 8.51787 28.146 9.45187 27.586 10.0399L15.76 24.0199C15.6257 24.1673 15.4628 24.2858 15.2811 24.3681C15.0995 24.4504 14.903 24.4948 14.7036 24.4985C14.5042 24.5023 14.3061 24.4653 14.1215 24.3899C13.9369 24.3145 13.7697 24.2022 13.63 24.0599L6.43396 16.7679C6.15643 16.4848 6.00098 16.1043 6.00098 15.7079C6.00098 15.3115 6.15643 14.9309 6.43396 14.6479C6.57045 14.5086 6.73336 14.398 6.91314 14.3224C7.09292 14.2469 7.28596 14.208 7.48096 14.208C7.67596 14.208 7.869 14.2469 8.04878 14.3224C8.22856 14.398 8.39147 14.5086 8.52796 14.6479L14.632 20.8339L25.432 7.98387C25.4444 7.96841 25.4578 7.95372 25.472 7.93987Z" fill="#CAA00A"/>
</svg>
