<svg width="32" height="32" viewBox="0 0 32 32" fill="none" xmlns="http://www.w3.org/2000/svg">
<path d="M12.6064 12.0001C13.4128 11.0241 14.6336 10.4001 16 10.4001C17.3664 10.4001 18.5872 11.0241 19.3936 12.0001C19.9245 12.6438 20.2615 13.4252 20.3651 14.2531C20.4688 15.0811 20.3349 15.9214 19.9791 16.6761C19.6232 17.4308 19.0601 18.0688 18.3555 18.5157C17.6508 18.9625 16.8336 19.1997 15.9992 19.1997C15.1648 19.1997 14.3476 18.9625 13.6429 18.5157C12.9383 18.0688 12.3752 17.4308 12.0193 16.6761C11.6635 15.9214 11.5296 15.0811 11.6333 14.2531C11.7369 13.4252 12.0739 12.6438 12.6048 12.0001H12.6064ZM22 14.8001C22 13.7889 21.7504 12.8353 21.3088 12.0001H28C28.6365 12.0001 29.247 12.253 29.6971 12.703C30.1471 13.1531 30.4 13.7636 30.4 14.4001V15.2001C30.4 17.7393 28.4704 20.3393 25.096 21.2545C24.7492 20.6316 24.2423 20.1127 23.6276 19.7515C23.013 19.3903 22.3129 19.1999 21.6 19.2001H20.08C20.6864 18.639 21.1701 17.9583 21.5006 17.2011C21.831 16.4438 22.0011 15.6263 22 14.8001ZM21.6 20.8001C21.9154 20.7993 22.2279 20.8608 22.5194 20.9811C22.811 21.1014 23.0759 21.2781 23.2989 21.5012C23.522 21.7242 23.6987 21.9891 23.819 22.2807C23.9393 22.5722 24.0008 22.8847 24 23.2001V24.0001C24 27.1537 21.024 30.4001 16 30.4001C10.976 30.4001 8 27.1537 8 24.0001V23.2001C7.99915 22.8847 8.06066 22.5722 8.18097 22.2807C8.30128 21.9891 8.47803 21.7242 8.70106 21.5012C8.92409 21.2781 9.189 21.1014 9.48056 20.9811C9.77212 20.8608 10.0846 20.7993 10.4 20.8001H21.6ZM1.6 15.2001C1.6 17.7393 3.5296 20.3393 6.904 21.2545C7.25077 20.6316 7.75772 20.1127 8.37238 19.7515C8.98704 19.3903 9.68707 19.1999 10.4 19.2001H11.92C11.3135 18.639 10.8299 17.9583 10.4994 17.2011C10.169 16.4438 9.99893 15.6263 10 14.8001C10 13.7889 10.2496 12.8353 10.6928 12.0001H4C3.36348 12.0001 2.75303 12.253 2.30294 12.703C1.85285 13.1531 1.6 13.7636 1.6 14.4001V15.2001ZM14 6.0001C14 4.83314 13.5364 3.71399 12.7113 2.88883C11.8861 2.06367 10.767 1.6001 9.6 1.6001C8.43305 1.6001 7.31389 2.06367 6.48873 2.88883C5.66357 3.71399 5.2 4.83314 5.2 6.0001C5.2 7.16705 5.66357 8.28621 6.48873 9.11137C7.31389 9.93653 8.43305 10.4001 9.6 10.4001C10.767 10.4001 11.8861 9.93653 12.7113 9.11137C13.5364 8.28621 14 7.16705 14 6.0001V6.0001ZM26.8 6.0001C26.8 4.83314 26.3364 3.71399 25.5113 2.88883C24.6861 2.06367 23.5669 1.6001 22.4 1.6001C21.233 1.6001 20.1139 2.06367 19.2887 2.88883C18.4636 3.71399 18 4.83314 18 6.0001C18 7.16705 18.4636 8.28621 19.2887 9.11137C20.1139 9.93653 21.233 10.4001 22.4 10.4001C23.5669 10.4001 24.6861 9.93653 25.5113 9.11137C26.3364 8.28621 26.8 7.16705 26.8 6.0001V6.0001Z" fill="#FFFFFE"/>
</svg>
