<svg width="32" height="32" viewBox="0 0 32 32" fill="none" xmlns="http://www.w3.org/2000/svg">
<path d="M4 5.41992H10.6667C11.0203 5.41992 11.3594 5.5604 11.6095 5.81045C11.8595 6.06049 12 6.39963 12 6.75326V25.4199C12 25.7735 11.8595 26.1127 11.6095 26.3627C11.3594 26.6128 11.0203 26.7533 10.6667 26.7533H4C3.64638 26.7533 3.30724 26.6128 3.05719 26.3627C2.80714 26.1127 2.66666 25.7735 2.66666 25.4199V6.75326C2.66666 6.39963 2.80714 6.06049 3.05719 5.81045C3.30724 5.5604 3.64638 5.41992 4 5.41992V5.41992ZM4 20.0866V22.7533H6.66666V20.0866H4ZM16 9.41992H26.6667C27.3739 9.41992 28.0522 9.70087 28.5523 10.201C29.0524 10.7011 29.3333 11.3793 29.3333 12.0866V20.0866C29.3333 20.7938 29.0524 21.4721 28.5523 21.9722C28.0522 22.4723 27.3739 22.7533 26.6667 22.7533H16C15.2928 22.7533 14.6145 22.4723 14.1144 21.9722C13.6143 21.4721 13.3333 20.7938 13.3333 20.0866V12.0866C13.3333 11.3793 13.6143 10.7011 14.1144 10.201C14.6145 9.70087 15.2928 9.41992 16 9.41992ZM18.6667 24.0866H24C24.3536 24.0866 24.6928 24.2271 24.9428 24.4771C25.1929 24.7272 25.3333 25.0663 25.3333 25.4199C25.3333 25.7735 25.1929 26.1127 24.9428 26.3627C24.6928 26.6128 24.3536 26.7533 24 26.7533H18.6667C18.313 26.7533 17.9739 26.6128 17.7239 26.3627C17.4738 26.1127 17.3333 25.7735 17.3333 25.4199C17.3333 25.0663 17.4738 24.7272 17.7239 24.4771C17.9739 24.2271 18.313 24.0866 18.6667 24.0866V24.0866Z" fill="white"/>
</svg>
