<svg width="32" height="32" viewBox="0 0 32 32" fill="none" xmlns="http://www.w3.org/2000/svg">
<path d="M18.6667 11.6999C18.6667 11.4999 18.7391 11.2941 18.884 11.0826C19.028 10.8719 19.1889 10.7333 19.3667 10.6666C20.0111 10.4444 20.6556 10.2777 21.3 10.1666C21.9444 10.0555 22.6222 9.99992 23.3333 9.99992C23.7778 9.99992 24.2169 10.0275 24.6507 10.0826C25.0836 10.1386 25.5111 10.211 25.9333 10.2999C26.1333 10.3444 26.3053 10.4555 26.4493 10.6333C26.5942 10.811 26.6667 11.011 26.6667 11.2333C26.6667 11.611 26.5444 11.8888 26.3 12.0666C26.0556 12.2444 25.7444 12.2888 25.3667 12.1999C25.0556 12.1333 24.728 12.083 24.384 12.0493C24.0391 12.0164 23.6889 11.9999 23.3333 11.9999C22.7556 11.9999 22.1889 12.0555 21.6333 12.1666C21.0778 12.2777 20.5444 12.4221 20.0333 12.5999C19.6333 12.7555 19.3058 12.7444 19.0507 12.5666C18.7947 12.3888 18.6667 12.0999 18.6667 11.6999V11.6999ZM18.6667 19.0333C18.6667 18.8333 18.7391 18.6275 18.884 18.4159C19.028 18.2053 19.1889 18.0666 19.3667 17.9999C20.0111 17.7777 20.6556 17.611 21.3 17.4999C21.9444 17.3888 22.6222 17.3333 23.3333 17.3333C23.7778 17.3333 24.2169 17.3608 24.6507 17.4159C25.0836 17.4719 25.5111 17.5444 25.9333 17.6333C26.1333 17.6777 26.3053 17.7888 26.4493 17.9666C26.5942 18.1444 26.6667 18.3444 26.6667 18.5666C26.6667 18.9444 26.5444 19.2221 26.3 19.3999C26.0556 19.5777 25.7444 19.6221 25.3667 19.5333C25.0556 19.4666 24.728 19.4164 24.384 19.3826C24.0391 19.3497 23.6889 19.3333 23.3333 19.3333C22.7556 19.3333 22.1889 19.3835 21.6333 19.4839C21.0778 19.5835 20.5444 19.7221 20.0333 19.8999C19.6333 20.0555 19.3058 20.0497 19.0507 19.8826C18.7947 19.7164 18.6667 19.4333 18.6667 19.0333V19.0333ZM18.6667 15.3666C18.6667 15.1666 18.7391 14.9608 18.884 14.7493C19.028 14.5386 19.1889 14.3999 19.3667 14.3333C20.0111 14.111 20.6556 13.9444 21.3 13.8333C21.9444 13.7221 22.6222 13.6666 23.3333 13.6666C23.7778 13.6666 24.2169 13.6941 24.6507 13.7493C25.0836 13.8053 25.5111 13.8777 25.9333 13.9666C26.1333 14.011 26.3053 14.1221 26.4493 14.2999C26.5942 14.4777 26.6667 14.6777 26.6667 14.8999C26.6667 15.2777 26.5444 15.5555 26.3 15.7333C26.0556 15.911 25.7444 15.9555 25.3667 15.8666C25.0556 15.7999 24.728 15.7497 24.384 15.7159C24.0391 15.683 23.6889 15.6666 23.3333 15.6666C22.7556 15.6666 22.1889 15.7221 21.6333 15.8333C21.0778 15.9444 20.5444 16.0888 20.0333 16.2666C19.6333 16.4221 19.3058 16.411 19.0507 16.2333C18.7947 16.0555 18.6667 15.7666 18.6667 15.3666V15.3666ZM17.3333 22.7332C18.3111 22.2666 19.2947 21.9164 20.284 21.6826C21.2724 21.4497 22.2889 21.3333 23.3333 21.3333C24.1333 21.3333 24.9169 21.3999 25.684 21.5333C26.4502 21.6666 27.2222 21.8666 28 22.1333V8.93325C27.2667 8.62214 26.5058 8.38881 25.7173 8.23325C24.928 8.0777 24.1333 7.99992 23.3333 7.99992C22.2889 7.99992 21.2556 8.13325 20.2333 8.39992C19.2111 8.66659 18.2444 9.06658 17.3333 9.59992V22.7332ZM16 25.9666C15.6889 25.9666 15.3947 25.9279 15.1173 25.8506C14.8391 25.7724 14.5778 25.6666 14.3333 25.5333C13.4667 25.0221 12.5556 24.639 11.6 24.3839C10.6444 24.1279 9.66667 23.9999 8.66667 23.9999C7.73334 23.9999 6.81689 24.1221 5.91734 24.3666C5.01689 24.611 4.15556 24.9555 3.33334 25.3999C2.86667 25.6444 2.41689 25.6333 1.984 25.3666C1.55022 25.0999 1.33334 24.711 1.33334 24.1999V8.13325C1.33334 7.88881 1.39467 7.65547 1.51734 7.43325C1.63911 7.21103 1.82222 7.04436 2.06667 6.93325C3.08889 6.39992 4.15556 5.99992 5.26667 5.73325C6.37778 5.46659 7.51111 5.33325 8.66667 5.33325C9.95556 5.33325 11.2169 5.49992 12.4507 5.83325C13.6836 6.16659 14.8667 6.66659 16 7.33325C17.1333 6.66659 18.3169 6.16659 19.5507 5.83325C20.7836 5.49992 22.0444 5.33325 23.3333 5.33325C24.4889 5.33325 25.6222 5.46659 26.7333 5.73325C27.8444 5.99992 28.9111 6.39992 29.9333 6.93325C30.1778 7.04436 30.3613 7.21103 30.484 7.43325C30.6058 7.65547 30.6667 7.88881 30.6667 8.13325V24.1999C30.6667 24.711 30.4502 25.0999 30.0173 25.3666C29.5836 25.6333 29.1333 25.6444 28.6667 25.3999C27.8444 24.9555 26.9831 24.611 26.0827 24.3666C25.1831 24.1221 24.2667 23.9999 23.3333 23.9999C22.3333 23.9999 21.3556 24.1279 20.4 24.3839C19.4444 24.639 18.5333 25.0221 17.6667 25.5333C17.4222 25.6666 17.1613 25.7724 16.884 25.8506C16.6058 25.9279 16.3111 25.9666 16 25.9666V25.9666Z" fill="#FFFFFE"/>
</svg>
