<svg width="96" height="96" viewBox="0 0 96 96" fill="none" xmlns="http://www.w3.org/2000/svg">
<path d="M26.1333 50.1333H69.8666V58.3467H74.1333V45.8667H50.1333V37.3333H45.8666V45.8667H21.8666V58.3467H26.1333V50.1333Z" fill="#262626"/>
<path d="M37.3333 61.3333H10.6666C9.25216 61.3333 7.8956 61.8952 6.89541 62.8954C5.89522 63.8956 5.33331 65.2522 5.33331 66.6667V82.6667C5.33331 84.0812 5.89522 85.4377 6.89541 86.4379C7.8956 87.4381 9.25216 88 10.6666 88H37.3333C38.7478 88 40.1044 87.4381 41.1045 86.4379C42.1047 85.4377 42.6666 84.0812 42.6666 82.6667V66.6667C42.6666 65.2522 42.1047 63.8956 41.1045 62.8954C40.1044 61.8952 38.7478 61.3333 37.3333 61.3333ZM10.6666 82.6667V66.6667H37.3333V82.6667H10.6666Z" fill="#262626"/>
<path d="M85.3333 61.3333H58.6666C57.2522 61.3333 55.8956 61.8952 54.8954 62.8954C53.8952 63.8956 53.3333 65.2522 53.3333 66.6667V82.6667C53.3333 84.0812 53.8952 85.4377 54.8954 86.4379C55.8956 87.4381 57.2522 88 58.6666 88H85.3333C86.7478 88 88.1044 87.4381 89.1046 86.4379C90.1047 85.4377 90.6666 84.0812 90.6666 82.6667V66.6667C90.6666 65.2522 90.1047 63.8956 89.1046 62.8954C88.1044 61.8952 86.7478 61.3333 85.3333 61.3333ZM58.6666 82.6667V66.6667H85.3333V82.6667H58.6666Z" fill="#262626"/>
<path d="M34.6666 34.6667H61.3333C62.7478 34.6667 64.1044 34.1048 65.1045 33.1046C66.1047 32.1044 66.6666 30.7478 66.6666 29.3333V13.3333C66.6666 11.9188 66.1047 10.5623 65.1045 9.5621C64.1044 8.5619 62.7478 8 61.3333 8H34.6666C33.2522 8 31.8956 8.5619 30.8954 9.5621C29.8952 10.5623 29.3333 11.9188 29.3333 13.3333V29.3333C29.3333 30.7478 29.8952 32.1044 30.8954 33.1046C31.8956 34.1048 33.2522 34.6667 34.6666 34.6667ZM34.6666 13.3333H61.3333V29.3333H34.6666V13.3333Z" fill="#262626"/>
</svg>
